<?xml version="1.0" encoding="UTF-8" standalone="no"?>
<!DOCTYPE svg PUBLIC "-//W3C//DTD SVG 1.1//EN"
 "http://www.w3.org/Graphics/SVG/1.1/DTD/svg11.dtd">
<!-- Generated by graphviz version 8.0.5 (20230506.1012)
 -->
<!-- Title: snakemake_dag Pages: 1 -->
<svg width="1013pt" height="787pt"
 viewBox="0.00 0.00 1013.48 787.00" xmlns="http://www.w3.org/2000/svg" xmlns:xlink="http://www.w3.org/1999/xlink">
<g id="graph0" class="graph" transform="scale(1 1) rotate(0) translate(4 783)">
<title>snakemake_dag</title>
<polygon fill="white" stroke="none" points="-4,4 -4,-783 1009.48,-783 1009.48,4 -4,4"/>
<!-- 0 -->
<g id="node1" class="node">
<title>0</title>
<path fill="none" stroke="#56c1d8" stroke-width="2" stroke-dasharray="5,2" d="M322.73,-36C322.73,-36 292.73,-36 292.73,-36 286.73,-36 280.73,-30 280.73,-24 280.73,-24 280.73,-12 280.73,-12 280.73,-6 286.73,0 292.73,0 292.73,0 322.73,0 322.73,0 328.73,0 334.73,-6 334.73,-12 334.73,-12 334.73,-24 334.73,-24 334.73,-30 328.73,-36 322.73,-36"/>
<text text-anchor="middle" x="307.73" y="-14.88" font-family="sans" font-size="10.00">all</text>
</g>
<!-- 1 -->
<g id="node2" class="node">
<title>1</title>
<path fill="none" stroke="#d8a456" stroke-width="2" stroke-dasharray="5,2" d="M180.11,-684C180.11,-684 121.36,-684 121.36,-684 115.36,-684 109.36,-678 109.36,-672 109.36,-672 109.36,-660 109.36,-660 109.36,-654 115.36,-648 121.36,-648 121.36,-648 180.11,-648 180.11,-648 186.11,-648 192.11,-654 192.11,-660 192.11,-660 192.11,-672 192.11,-672 192.11,-678 186.11,-684 180.11,-684"/>
<text text-anchor="middle" x="150.73" y="-662.88" font-family="sans" font-size="10.00">fastp_multiqc</text>
</g>
<!-- 1&#45;&gt;0 -->
<g id="edge1" class="edge">
<title>1&#45;&gt;0</title>
<path fill="none" stroke="grey" stroke-width="2" d="M148.87,-647.09C146.23,-620.18 141.73,-567.71 141.73,-523 141.73,-523 141.73,-523 141.73,-161 141.73,-94.75 219.04,-52.79 268.14,-32.82"/>
<polygon fill="grey" stroke="grey" stroke-width="2" points="269.9,-36.11 277.95,-29.22 267.36,-29.59 269.9,-36.11"/>
</g>
<!-- 2 -->
<g id="node3" class="node">
<title>2</title>
<path fill="none" stroke="#70d856" stroke-width="2" stroke-dasharray="5,2" d="M124.36,-779C124.36,-779 91.11,-779 91.11,-779 85.11,-779 79.11,-773 79.11,-767 79.11,-767 79.11,-732 79.11,-732 79.11,-726 85.11,-720 91.11,-720 91.11,-720 124.36,-720 124.36,-720 130.36,-720 136.36,-726 136.36,-732 136.36,-732 136.36,-767 136.36,-767 136.36,-773 130.36,-779 124.36,-779"/>
<text text-anchor="middle" x="107.73" y="-765.5" font-family="sans" font-size="10.00">fastp_se</text>
<text text-anchor="middle" x="107.73" y="-752.75" font-family="sans" font-size="10.00">g: T</text>
<text text-anchor="middle" x="107.73" y="-740" font-family="sans" font-size="10.00">s: P1</text>
<text text-anchor="middle" x="107.73" y="-727.25" font-family="sans" font-size="10.00">u: </text>
</g>
<!-- 2&#45;&gt;1 -->
<g id="edge6" class="edge">
<title>2&#45;&gt;1</title>
<path fill="none" stroke="grey" stroke-width="2" d="M123.26,-719.08C127.19,-711.63 131.41,-703.63 135.34,-696.19"/>
<polygon fill="grey" stroke="grey" stroke-width="2" points="138.79,-697.24 140.36,-686.76 132.6,-693.97 138.79,-697.24"/>
</g>
<!-- 8 -->
<g id="node9" class="node">
<title>8</title>
<path fill="none" stroke="#56d8c1" stroke-width="2" stroke-dasharray="5,2" d="M79.23,-684C79.23,-684 30.23,-684 30.23,-684 24.23,-684 18.23,-678 18.23,-672 18.23,-672 18.23,-660 18.23,-660 18.23,-654 24.23,-648 30.23,-648 30.23,-648 79.23,-648 79.23,-648 85.23,-648 91.23,-654 91.23,-660 91.23,-660 91.23,-672 91.23,-672 91.23,-678 85.23,-684 79.23,-684"/>
<text text-anchor="middle" x="54.73" y="-662.88" font-family="sans" font-size="10.00">bwa_mem2</text>
</g>
<!-- 2&#45;&gt;8 -->
<g id="edge14" class="edge">
<title>2&#45;&gt;8</title>
<path fill="none" stroke="grey" stroke-width="2" d="M88.6,-719.08C83.64,-711.45 78.3,-703.24 73.37,-695.65"/>
<polygon fill="grey" stroke="grey" stroke-width="2" points="75.67,-693.23 67.28,-686.76 69.8,-697.05 75.67,-693.23"/>
</g>
<!-- 3 -->
<g id="node4" class="node">
<title>3</title>
<path fill="none" stroke="#70d856" stroke-width="2" stroke-dasharray="5,2" d="M209.36,-779C209.36,-779 176.11,-779 176.11,-779 170.11,-779 164.11,-773 164.11,-767 164.11,-767 164.11,-732 164.11,-732 164.11,-726 170.11,-720 176.11,-720 176.11,-720 209.36,-720 209.36,-720 215.36,-720 221.36,-726 221.36,-732 221.36,-732 221.36,-767 221.36,-767 221.36,-773 215.36,-779 209.36,-779"/>
<text text-anchor="middle" x="192.73" y="-765.5" font-family="sans" font-size="10.00">fastp_se</text>
<text text-anchor="middle" x="192.73" y="-752.75" font-family="sans" font-size="10.00">g: N</text>
<text text-anchor="middle" x="192.73" y="-740" font-family="sans" font-size="10.00">s: P1</text>
<text text-anchor="middle" x="192.73" y="-727.25" font-family="sans" font-size="10.00">u: </text>
</g>
<!-- 3&#45;&gt;1 -->
<g id="edge7" class="edge">
<title>3&#45;&gt;1</title>
<path fill="none" stroke="grey" stroke-width="2" d="M177.57,-719.08C173.73,-711.63 169.61,-703.63 165.78,-696.19"/>
<polygon fill="grey" stroke="grey" stroke-width="2" points="168.58,-694.05 160.89,-686.76 162.36,-697.25 168.58,-694.05"/>
</g>
<!-- 13 -->
<g id="node14" class="node">
<title>13</title>
<path fill="none" stroke="#56d8c1" stroke-width="2" stroke-dasharray="5,2" d="M753.23,-684C753.23,-684 704.23,-684 704.23,-684 698.23,-684 692.23,-678 692.23,-672 692.23,-672 692.23,-660 692.23,-660 692.23,-654 698.23,-648 704.23,-648 704.23,-648 753.23,-648 753.23,-648 759.23,-648 765.23,-654 765.23,-660 765.23,-660 765.23,-672 765.23,-672 765.23,-678 759.23,-684 753.23,-684"/>
<text text-anchor="middle" x="728.73" y="-662.88" font-family="sans" font-size="10.00">bwa_mem2</text>
</g>
<!-- 3&#45;&gt;13 -->
<g id="edge20" class="edge">
<title>3&#45;&gt;13</title>
<path fill="none" stroke="grey" stroke-width="2" d="M222.32,-744C309.94,-730.68 568.87,-691.31 678.64,-674.62"/>
<polygon fill="grey" stroke="grey" stroke-width="2" points="679.9,-677.66 689.26,-672.7 678.85,-670.74 679.9,-677.66"/>
</g>
<!-- 4 -->
<g id="node5" class="node">
<title>4</title>
<path fill="none" stroke="#d6d856" stroke-width="2" stroke-dasharray="5,2" d="M267.86,-324C267.86,-324 213.61,-324 213.61,-324 207.61,-324 201.61,-318 201.61,-312 201.61,-312 201.61,-300 201.61,-300 201.61,-294 207.61,-288 213.61,-288 213.61,-288 267.86,-288 267.86,-288 273.86,-288 279.86,-294 279.86,-300 279.86,-300 279.86,-312 279.86,-312 279.86,-318 273.86,-324 267.86,-324"/>
<text text-anchor="middle" x="240.73" y="-302.88" font-family="sans" font-size="10.00">bwa_multiqc</text>
</g>
<!-- 4&#45;&gt;0 -->
<g id="edge2" class="edge">
<title>4&#45;&gt;0</title>
<path fill="none" stroke="grey" stroke-width="2" d="M241.38,-287.35C242.8,-257.45 247.12,-195.1 259.73,-144 268.08,-110.21 283.08,-73.19 294.1,-48.28"/>
<polygon fill="grey" stroke="grey" stroke-width="2" points="297.37,-49.32 298.29,-38.76 290.99,-46.44 297.37,-49.32"/>
</g>
<!-- 5 -->
<g id="node6" class="node">
<title>5</title>
<path fill="none" stroke="#56d8a2" stroke-width="2" stroke-dasharray="5,2" d="M247.86,-396C247.86,-396 181.61,-396 181.61,-396 175.61,-396 169.61,-390 169.61,-384 169.61,-384 169.61,-372 169.61,-372 169.61,-366 175.61,-360 181.61,-360 181.61,-360 247.86,-360 247.86,-360 253.86,-360 259.86,-366 259.86,-372 259.86,-372 259.86,-384 259.86,-384 259.86,-390 253.86,-396 247.86,-396"/>
<text text-anchor="middle" x="214.73" y="-374.88" font-family="sans" font-size="10.00">samtools_stats</text>
</g>
<!-- 5&#45;&gt;4 -->
<g id="edge8" class="edge">
<title>5&#45;&gt;4</title>
<path fill="none" stroke="grey" stroke-width="2" d="M221.3,-359.34C223.83,-352.51 226.81,-344.5 229.65,-336.83"/>
<polygon fill="grey" stroke="grey" stroke-width="2" points="232.88,-337.49 233.09,-326.9 226.32,-335.06 232.88,-337.49"/>
</g>
<!-- 6 -->
<g id="node7" class="node">
<title>6</title>
<path fill="none" stroke="#56d873" stroke-width="2" stroke-dasharray="5,2" d="M309.23,-468C309.23,-468 242.23,-468 242.23,-468 236.23,-468 230.23,-462 230.23,-456 230.23,-456 230.23,-444 230.23,-444 230.23,-438 236.23,-432 242.23,-432 242.23,-432 309.23,-432 309.23,-432 315.23,-432 321.23,-438 321.23,-444 321.23,-444 321.23,-456 321.23,-456 321.23,-462 315.23,-468 309.23,-468"/>
<text text-anchor="middle" x="275.73" y="-446.88" font-family="sans" font-size="10.00">MergeSamFiles</text>
</g>
<!-- 6&#45;&gt;5 -->
<g id="edge10" class="edge">
<title>6&#45;&gt;5</title>
<path fill="none" stroke="grey" stroke-width="2" d="M260.34,-431.34C253.82,-423.85 246.06,-414.95 238.81,-406.63"/>
<polygon fill="grey" stroke="grey" stroke-width="2" points="240.54,-404.14 231.34,-398.9 235.27,-408.74 240.54,-404.14"/>
</g>
<!-- 18 -->
<g id="node19" class="node">
<title>18</title>
<path fill="none" stroke="#d88d56" stroke-width="2" stroke-dasharray="5,2" d="M505.86,-396C505.86,-396 421.61,-396 421.61,-396 415.61,-396 409.61,-390 409.61,-384 409.61,-384 409.61,-372 409.61,-372 409.61,-366 415.61,-360 421.61,-360 421.61,-360 505.86,-360 505.86,-360 511.86,-360 517.86,-366 517.86,-372 517.86,-372 517.86,-384 517.86,-384 517.86,-390 511.86,-396 505.86,-396"/>
<text text-anchor="middle" x="463.73" y="-374.88" font-family="sans" font-size="10.00">CollectReadCounts</text>
</g>
<!-- 6&#45;&gt;18 -->
<g id="edge29" class="edge">
<title>6&#45;&gt;18</title>
<path fill="none" stroke="grey" stroke-width="2" d="M322.21,-431.7C346.71,-422.57 377.05,-411.28 403.35,-401.48"/>
<polygon fill="grey" stroke="grey" stroke-width="2" points="405.36,-404.73 413.51,-397.96 402.91,-398.17 405.36,-404.73"/>
</g>
<!-- 24 -->
<g id="node25" class="node">
<title>24</title>
<path fill="none" stroke="#59d856" stroke-width="2" stroke-dasharray="5,2" d="M379.48,-396C379.48,-396 289.98,-396 289.98,-396 283.98,-396 277.98,-390 277.98,-384 277.98,-384 277.98,-372 277.98,-372 277.98,-366 283.98,-360 289.98,-360 289.98,-360 379.48,-360 379.48,-360 385.48,-360 391.48,-366 391.48,-372 391.48,-372 391.48,-384 391.48,-384 391.48,-390 385.48,-396 379.48,-396"/>
<text text-anchor="middle" x="334.73" y="-374.88" font-family="sans" font-size="10.00">CollectAllelicCounts</text>
</g>
<!-- 6&#45;&gt;24 -->
<g id="edge37" class="edge">
<title>6&#45;&gt;24</title>
<path fill="none" stroke="grey" stroke-width="2" d="M290.62,-431.34C296.93,-423.85 304.44,-414.95 311.45,-406.63"/>
<polygon fill="grey" stroke="grey" stroke-width="2" points="314.88,-408.8 318.65,-398.9 309.53,-404.29 314.88,-408.8"/>
</g>
<!-- 7 -->
<g id="node8" class="node">
<title>7</title>
<path fill="none" stroke="#56d88a" stroke-width="2" stroke-dasharray="5,2" d="M87.11,-540C87.11,-540 40.36,-540 40.36,-540 34.36,-540 28.36,-534 28.36,-528 28.36,-528 28.36,-516 28.36,-516 28.36,-510 34.36,-504 40.36,-504 40.36,-504 87.11,-504 87.11,-504 93.11,-504 99.11,-510 99.11,-516 99.11,-516 99.11,-528 99.11,-528 99.11,-534 93.11,-540 87.11,-540"/>
<text text-anchor="middle" x="63.73" y="-518.88" font-family="sans" font-size="10.00">ApplyBQSR</text>
</g>
<!-- 7&#45;&gt;6 -->
<g id="edge11" class="edge">
<title>7&#45;&gt;6</title>
<path fill="none" stroke="grey" stroke-width="2" d="M99.7,-509.13C131.86,-498.51 179.58,-482.75 217.23,-470.32"/>
<polygon fill="grey" stroke="grey" stroke-width="2" points="219.18,-472.7 227.58,-466.24 216.98,-466.05 219.18,-472.7"/>
</g>
<!-- 8&#45;&gt;7 -->
<g id="edge12" class="edge">
<title>8&#45;&gt;7</title>
<path fill="none" stroke="grey" stroke-width="2" d="M31.09,-647.02C20.93,-637.8 10.15,-625.64 4.73,-612 -1.17,-597.13 -1.78,-590.61 4.73,-576 9.29,-565.79 16.89,-556.72 25.15,-549.1"/>
<polygon fill="grey" stroke="grey" stroke-width="2" points="27.59,-550.94 33,-541.84 23.09,-545.58 27.59,-550.94"/>
</g>
<!-- 9 -->
<g id="node10" class="node">
<title>9</title>
<path fill="none" stroke="#d85656" stroke-width="2" stroke-dasharray="5,2" d="M101.36,-612C101.36,-612 26.11,-612 26.11,-612 20.11,-612 14.11,-606 14.11,-600 14.11,-600 14.11,-588 14.11,-588 14.11,-582 20.11,-576 26.11,-576 26.11,-576 101.36,-576 101.36,-576 107.36,-576 113.36,-582 113.36,-588 113.36,-588 113.36,-600 113.36,-600 113.36,-606 107.36,-612 101.36,-612"/>
<text text-anchor="middle" x="63.73" y="-590.88" font-family="sans" font-size="10.00">BaseRecalibrator</text>
</g>
<!-- 8&#45;&gt;9 -->
<g id="edge15" class="edge">
<title>8&#45;&gt;9</title>
<path fill="none" stroke="grey" stroke-width="2" d="M57.01,-647.34C57.85,-640.75 58.84,-633.08 59.79,-625.67"/>
<polygon fill="grey" stroke="grey" stroke-width="2" points="63.63,-626.27 61.43,-615.9 56.69,-625.37 63.63,-626.27"/>
</g>
<!-- 9&#45;&gt;7 -->
<g id="edge13" class="edge">
<title>9&#45;&gt;7</title>
<path fill="none" stroke="grey" stroke-width="2" d="M63.73,-575.34C63.73,-568.75 63.73,-561.08 63.73,-553.67"/>
<polygon fill="grey" stroke="grey" stroke-width="2" points="67.23,-553.9 63.73,-543.9 60.23,-553.9 67.23,-553.9"/>
</g>
<!-- 10 -->
<g id="node11" class="node">
<title>10</title>
<path fill="none" stroke="#56d8a2" stroke-width="2" stroke-dasharray="5,2" d="M613.86,-396C613.86,-396 547.61,-396 547.61,-396 541.61,-396 535.61,-390 535.61,-384 535.61,-384 535.61,-372 535.61,-372 535.61,-366 541.61,-360 547.61,-360 547.61,-360 613.86,-360 613.86,-360 619.86,-360 625.86,-366 625.86,-372 625.86,-372 625.86,-384 625.86,-384 625.86,-390 619.86,-396 613.86,-396"/>
<text text-anchor="middle" x="580.73" y="-374.88" font-family="sans" font-size="10.00">samtools_stats</text>
</g>
<!-- 10&#45;&gt;4 -->
<g id="edge9" class="edge">
<title>10&#45;&gt;4</title>
<path fill="none" stroke="grey" stroke-width="2" d="M534.89,-362.15C532.14,-361.39 529.41,-360.67 526.73,-360 446.27,-339.96 351.36,-323.82 293.64,-314.83"/>
<polygon fill="grey" stroke="grey" stroke-width="2" points="293.27,-310.92 282.85,-312.85 292.2,-317.84 293.27,-310.92"/>
</g>
<!-- 11 -->
<g id="node12" class="node">
<title>11</title>
<path fill="none" stroke="#56d873" stroke-width="2" stroke-dasharray="5,2" d="M851.23,-468C851.23,-468 784.23,-468 784.23,-468 778.23,-468 772.23,-462 772.23,-456 772.23,-456 772.23,-444 772.23,-444 772.23,-438 778.23,-432 784.23,-432 784.23,-432 851.23,-432 851.23,-432 857.23,-432 863.23,-438 863.23,-444 863.23,-444 863.23,-456 863.23,-456 863.23,-462 857.23,-468 851.23,-468"/>
<text text-anchor="middle" x="817.73" y="-446.88" font-family="sans" font-size="10.00">MergeSamFiles</text>
</g>
<!-- 11&#45;&gt;10 -->
<g id="edge16" class="edge">
<title>11&#45;&gt;10</title>
<path fill="none" stroke="grey" stroke-width="2" d="M771.39,-435.14C767.79,-434.07 764.2,-433.02 760.73,-432 708.94,-416.82 693.19,-413.02 638.84,-396.9"/>
<polygon fill="grey" stroke="grey" stroke-width="2" points="639.21,-392.76 628.63,-393.26 637.22,-399.47 639.21,-392.76"/>
</g>
<!-- 22 -->
<g id="node23" class="node">
<title>22</title>
<path fill="none" stroke="#d88d56" stroke-width="2" stroke-dasharray="5,2" d="M861.86,-396C861.86,-396 777.61,-396 777.61,-396 771.61,-396 765.61,-390 765.61,-384 765.61,-384 765.61,-372 765.61,-372 765.61,-366 771.61,-360 777.61,-360 777.61,-360 861.86,-360 861.86,-360 867.86,-360 873.86,-366 873.86,-372 873.86,-372 873.86,-384 873.86,-384 873.86,-390 867.86,-396 861.86,-396"/>
<text text-anchor="middle" x="819.73" y="-374.88" font-family="sans" font-size="10.00">CollectReadCounts</text>
</g>
<!-- 11&#45;&gt;22 -->
<g id="edge34" class="edge">
<title>11&#45;&gt;22</title>
<path fill="none" stroke="grey" stroke-width="2" d="M818.24,-431.34C818.43,-424.75 818.65,-417.08 818.86,-409.67"/>
<polygon fill="grey" stroke="grey" stroke-width="2" points="822.44,-410 819.22,-399.9 815.44,-409.8 822.44,-410"/>
</g>
<!-- 25 -->
<g id="node26" class="node">
<title>25</title>
<path fill="none" stroke="#59d856" stroke-width="2" stroke-dasharray="5,2" d="M993.48,-396C993.48,-396 903.98,-396 903.98,-396 897.98,-396 891.98,-390 891.98,-384 891.98,-384 891.98,-372 891.98,-372 891.98,-366 897.98,-360 903.98,-360 903.98,-360 993.48,-360 993.48,-360 999.48,-360 1005.48,-366 1005.48,-372 1005.48,-372 1005.48,-384 1005.48,-384 1005.48,-390 999.48,-396 993.48,-396"/>
<text text-anchor="middle" x="948.73" y="-374.88" font-family="sans" font-size="10.00">CollectAllelicCounts</text>
</g>
<!-- 11&#45;&gt;25 -->
<g id="edge39" class="edge">
<title>11&#45;&gt;25</title>
<path fill="none" stroke="grey" stroke-width="2" d="M851.13,-431.15C867.3,-422.52 886.93,-412.02 904.34,-402.72"/>
<polygon fill="grey" stroke="grey" stroke-width="2" points="906.23,-405.61 913.4,-397.81 902.93,-399.44 906.23,-405.61"/>
</g>
<!-- 12 -->
<g id="node13" class="node">
<title>12</title>
<path fill="none" stroke="#56d88a" stroke-width="2" stroke-dasharray="5,2" d="M830.11,-540C830.11,-540 783.36,-540 783.36,-540 777.36,-540 771.36,-534 771.36,-528 771.36,-528 771.36,-516 771.36,-516 771.36,-510 777.36,-504 783.36,-504 783.36,-504 830.11,-504 830.11,-504 836.11,-504 842.11,-510 842.11,-516 842.11,-516 842.11,-528 842.11,-528 842.11,-534 836.11,-540 830.11,-540"/>
<text text-anchor="middle" x="806.73" y="-518.88" font-family="sans" font-size="10.00">ApplyBQSR</text>
</g>
<!-- 12&#45;&gt;11 -->
<g id="edge17" class="edge">
<title>12&#45;&gt;11</title>
<path fill="none" stroke="grey" stroke-width="2" d="M809.51,-503.34C810.54,-496.75 811.75,-489.08 812.92,-481.67"/>
<polygon fill="grey" stroke="grey" stroke-width="2" points="816.83,-481.32 814.92,-470.9 809.91,-480.24 816.83,-481.32"/>
</g>
<!-- 13&#45;&gt;12 -->
<g id="edge18" class="edge">
<title>13&#45;&gt;12</title>
<path fill="none" stroke="grey" stroke-width="2" d="M729.33,-647.12C730.66,-628.28 734.84,-598.29 747.73,-576 753.55,-565.96 761.93,-556.78 770.55,-548.99"/>
<polygon fill="grey" stroke="grey" stroke-width="2" points="772.88,-550.93 778.28,-541.81 768.37,-545.57 772.88,-550.93"/>
</g>
<!-- 14 -->
<g id="node15" class="node">
<title>14</title>
<path fill="none" stroke="#d85656" stroke-width="2" stroke-dasharray="5,2" d="M844.36,-612C844.36,-612 769.11,-612 769.11,-612 763.11,-612 757.11,-606 757.11,-600 757.11,-600 757.11,-588 757.11,-588 757.11,-582 763.11,-576 769.11,-576 769.11,-576 844.36,-576 844.36,-576 850.36,-576 856.36,-582 856.36,-588 856.36,-588 856.36,-600 856.36,-600 856.36,-606 850.36,-612 844.36,-612"/>
<text text-anchor="middle" x="806.73" y="-590.88" font-family="sans" font-size="10.00">BaseRecalibrator</text>
</g>
<!-- 13&#45;&gt;14 -->
<g id="edge21" class="edge">
<title>13&#45;&gt;14</title>
<path fill="none" stroke="grey" stroke-width="2" d="M748.42,-647.34C757.13,-639.52 767.55,-630.16 777.17,-621.53"/>
<polygon fill="grey" stroke="grey" stroke-width="2" points="779.68,-624.19 784.79,-614.9 775.01,-618.98 779.68,-624.19"/>
</g>
<!-- 14&#45;&gt;12 -->
<g id="edge19" class="edge">
<title>14&#45;&gt;12</title>
<path fill="none" stroke="grey" stroke-width="2" d="M806.73,-575.34C806.73,-568.75 806.73,-561.08 806.73,-553.67"/>
<polygon fill="grey" stroke="grey" stroke-width="2" points="810.23,-553.9 806.73,-543.9 803.23,-553.9 810.23,-553.9"/>
</g>
<!-- 15 -->
<g id="node16" class="node">
<title>15</title>
<path fill="none" stroke="#d86e56" stroke-width="2" stroke-dasharray="5,2" d="M601.61,-108C601.61,-108 491.86,-108 491.86,-108 485.86,-108 479.86,-102 479.86,-96 479.86,-96 479.86,-84 479.86,-84 479.86,-78 485.86,-72 491.86,-72 491.86,-72 601.61,-72 601.61,-72 607.61,-72 613.61,-78 613.61,-84 613.61,-84 613.61,-96 613.61,-96 613.61,-102 607.61,-108 601.61,-108"/>
<text text-anchor="middle" x="546.73" y="-86.88" font-family="sans" font-size="10.00">CallCopyRatioSegments</text>
</g>
<!-- 15&#45;&gt;0 -->
<g id="edge3" class="edge">
<title>15&#45;&gt;0</title>
<path fill="none" stroke="grey" stroke-width="2" d="M485.5,-71.06C442.32,-58.42 385.71,-41.84 348.09,-30.82"/>
<polygon fill="grey" stroke="grey" stroke-width="2" points="348.22,-26.62 337.64,-27.17 346.25,-33.34 348.22,-26.62"/>
</g>
<!-- 16 -->
<g id="node17" class="node">
<title>16</title>
<path fill="none" stroke="#88d856" stroke-width="2" stroke-dasharray="5,2" d="M543.11,-180C543.11,-180 472.36,-180 472.36,-180 466.36,-180 460.36,-174 460.36,-168 460.36,-168 460.36,-156 460.36,-156 460.36,-150 466.36,-144 472.36,-144 472.36,-144 543.11,-144 543.11,-144 549.11,-144 555.11,-150 555.11,-156 555.11,-156 555.11,-168 555.11,-168 555.11,-174 549.11,-180 543.11,-180"/>
<text text-anchor="middle" x="507.73" y="-158.88" font-family="sans" font-size="10.00">ModelSegments</text>
</g>
<!-- 16&#45;&gt;15 -->
<g id="edge22" class="edge">
<title>16&#45;&gt;15</title>
<path fill="none" stroke="grey" stroke-width="2" d="M517.58,-143.34C521.52,-136.26 526.16,-127.92 530.58,-120"/>
<polygon fill="grey" stroke="grey" stroke-width="2" points="533.95,-121.34 535.76,-110.9 527.84,-117.93 533.95,-121.34"/>
</g>
<!-- 27 -->
<g id="node28" class="node">
<title>27</title>
<path fill="none" stroke="#5673d8" stroke-width="2" stroke-dasharray="5,2" d="M449.48,-108C449.48,-108 347.98,-108 347.98,-108 341.98,-108 335.98,-102 335.98,-96 335.98,-96 335.98,-84 335.98,-84 335.98,-78 341.98,-72 347.98,-72 347.98,-72 449.48,-72 449.48,-72 455.48,-72 461.48,-78 461.48,-84 461.48,-84 461.48,-96 461.48,-96 461.48,-102 455.48,-108 449.48,-108"/>
<text text-anchor="middle" x="398.73" y="-86.88" font-family="sans" font-size="10.00">PlotModeledSegments</text>
</g>
<!-- 16&#45;&gt;27 -->
<g id="edge42" class="edge">
<title>16&#45;&gt;27</title>
<path fill="none" stroke="grey" stroke-width="2" d="M479.95,-143.15C467.01,-134.84 451.4,-124.82 437.34,-115.79"/>
<polygon fill="grey" stroke="grey" stroke-width="2" points="438.78,-112.27 428.47,-109.81 434.99,-118.16 438.78,-112.27"/>
</g>
<!-- 17 -->
<g id="node18" class="node">
<title>17</title>
<path fill="none" stroke="#56d8d8" stroke-width="2" stroke-dasharray="5,2" d="M543.86,-252C543.86,-252 453.61,-252 453.61,-252 447.61,-252 441.61,-246 441.61,-240 441.61,-240 441.61,-228 441.61,-228 441.61,-222 447.61,-216 453.61,-216 453.61,-216 543.86,-216 543.86,-216 549.86,-216 555.86,-222 555.86,-228 555.86,-228 555.86,-240 555.86,-240 555.86,-246 549.86,-252 543.86,-252"/>
<text text-anchor="middle" x="498.73" y="-230.88" font-family="sans" font-size="10.00">DenoiseReadCounts</text>
</g>
<!-- 17&#45;&gt;16 -->
<g id="edge23" class="edge">
<title>17&#45;&gt;16</title>
<path fill="none" stroke="grey" stroke-width="2" d="M501.01,-215.34C501.85,-208.75 502.84,-201.08 503.79,-193.67"/>
<polygon fill="grey" stroke="grey" stroke-width="2" points="507.63,-194.27 505.43,-183.9 500.69,-193.37 507.63,-194.27"/>
</g>
<!-- 26 -->
<g id="node27" class="node">
<title>26</title>
<path fill="none" stroke="#bed856" stroke-width="2" stroke-dasharray="5,2" d="M392.73,-180C392.73,-180 280.73,-180 280.73,-180 274.73,-180 268.73,-174 268.73,-168 268.73,-168 268.73,-156 268.73,-156 268.73,-150 274.73,-144 280.73,-144 280.73,-144 392.73,-144 392.73,-144 398.73,-144 404.73,-150 404.73,-156 404.73,-156 404.73,-168 404.73,-168 404.73,-174 398.73,-180 392.73,-180"/>
<text text-anchor="middle" x="336.73" y="-158.88" font-family="sans" font-size="10.00">PlotDenoisedCopyRatios</text>
</g>
<!-- 17&#45;&gt;26 -->
<g id="edge41" class="edge">
<title>17&#45;&gt;26</title>
<path fill="none" stroke="grey" stroke-width="2" d="M457.44,-215.15C436.95,-206.3 411.96,-195.51 390.05,-186.04"/>
<polygon fill="grey" stroke="grey" stroke-width="2" points="390.81,-182.69 380.24,-181.93 388.03,-189.11 390.81,-182.69"/>
</g>
<!-- 17&#45;&gt;27 -->
<g id="edge43" class="edge">
<title>17&#45;&gt;27</title>
<path fill="none" stroke="grey" stroke-width="2" d="M481.31,-215.08C472.04,-205.13 460.74,-192.31 451.73,-180 437.7,-160.8 424.02,-137.68 414.07,-119.82"/>
<polygon fill="grey" stroke="grey" stroke-width="2" points="416.84,-117.76 408.97,-110.67 410.7,-121.13 416.84,-117.76"/>
</g>
<!-- 18&#45;&gt;17 -->
<g id="edge26" class="edge">
<title>18&#45;&gt;17</title>
<path fill="none" stroke="grey" stroke-width="2" d="M468.17,-359.02C473.98,-335.44 484.26,-293.73 491.28,-265.25"/>
<polygon fill="grey" stroke="grey" stroke-width="2" points="495.34,-265.39 494.34,-254.84 488.55,-263.71 495.34,-265.39"/>
</g>
<!-- 19 -->
<g id="node20" class="node">
<title>19</title>
<path fill="none" stroke="#d8bc56" stroke-width="2" stroke-dasharray="5,2" d="M739.73,-468C739.73,-468 651.73,-468 651.73,-468 645.73,-468 639.73,-462 639.73,-456 639.73,-456 639.73,-444 639.73,-444 639.73,-438 645.73,-432 651.73,-432 651.73,-432 739.73,-432 739.73,-432 745.73,-432 751.73,-438 751.73,-444 751.73,-444 751.73,-456 751.73,-456 751.73,-462 745.73,-468 739.73,-468"/>
<text text-anchor="middle" x="695.73" y="-446.88" font-family="sans" font-size="10.00">PreprocessIntervals</text>
</g>
<!-- 19&#45;&gt;18 -->
<g id="edge30" class="edge">
<title>19&#45;&gt;18</title>
<path fill="none" stroke="grey" stroke-width="2" d="M638.98,-431.88C606.36,-422.03 565.21,-409.62 530.97,-399.29"/>
<polygon fill="grey" stroke="grey" stroke-width="2" points="531.29,-395.12 520.7,-395.59 529.27,-401.82 531.29,-395.12"/>
</g>
<!-- 19&#45;&gt;22 -->
<g id="edge35" class="edge">
<title>19&#45;&gt;22</title>
<path fill="none" stroke="grey" stroke-width="2" d="M727.35,-431.15C742.5,-422.6 760.88,-412.22 777.24,-402.99"/>
<polygon fill="grey" stroke="grey" stroke-width="2" points="779.19,-405.78 786.18,-397.81 775.75,-399.68 779.19,-405.78"/>
</g>
<!-- 23 -->
<g id="node24" class="node">
<title>23</title>
<path fill="none" stroke="#568ad8" stroke-width="2" stroke-dasharray="5,2" d="M735.23,-396C735.23,-396 656.23,-396 656.23,-396 650.23,-396 644.23,-390 644.23,-384 644.23,-384 644.23,-372 644.23,-372 644.23,-366 650.23,-360 656.23,-360 656.23,-360 735.23,-360 735.23,-360 741.23,-360 747.23,-366 747.23,-372 747.23,-372 747.23,-384 747.23,-384 747.23,-390 741.23,-396 735.23,-396"/>
<text text-anchor="middle" x="695.73" y="-374.88" font-family="sans" font-size="10.00">AnnotateIntervals</text>
</g>
<!-- 19&#45;&gt;23 -->
<g id="edge36" class="edge">
<title>19&#45;&gt;23</title>
<path fill="none" stroke="grey" stroke-width="2" d="M695.73,-431.34C695.73,-424.75 695.73,-417.08 695.73,-409.67"/>
<polygon fill="grey" stroke="grey" stroke-width="2" points="699.23,-409.9 695.73,-399.9 692.23,-409.9 699.23,-409.9"/>
</g>
<!-- 19&#45;&gt;24 -->
<g id="edge38" class="edge">
<title>19&#45;&gt;24</title>
<path fill="none" stroke="grey" stroke-width="2" d="M638.93,-440.08C582.08,-430.87 491.85,-415.47 404.8,-396.8"/>
<polygon fill="grey" stroke="grey" stroke-width="2" points="404.78,-392.78 394.27,-394.09 403.3,-399.63 404.78,-392.78"/>
</g>
<!-- 19&#45;&gt;25 -->
<g id="edge40" class="edge">
<title>19&#45;&gt;25</title>
<path fill="none" stroke="grey" stroke-width="2" d="M752.51,-433.29C789.93,-422.94 839.18,-409.31 878.98,-398.3"/>
<polygon fill="grey" stroke="grey" stroke-width="2" points="880.57,-400.94 889.27,-394.9 878.7,-394.19 880.57,-400.94"/>
</g>
<!-- 20 -->
<g id="node21" class="node">
<title>20</title>
<path fill="none" stroke="#56a2d8" stroke-width="2" stroke-dasharray="5,2" d="M733.73,-540C733.73,-540 657.73,-540 657.73,-540 651.73,-540 645.73,-534 645.73,-528 645.73,-528 645.73,-516 645.73,-516 645.73,-510 651.73,-504 657.73,-504 657.73,-504 733.73,-504 733.73,-504 739.73,-504 745.73,-510 745.73,-516 745.73,-516 745.73,-528 745.73,-528 745.73,-534 739.73,-540 733.73,-540"/>
<text text-anchor="middle" x="695.73" y="-518.88" font-family="sans" font-size="10.00">BedToIntervalList</text>
</g>
<!-- 20&#45;&gt;19 -->
<g id="edge31" class="edge">
<title>20&#45;&gt;19</title>
<path fill="none" stroke="grey" stroke-width="2" d="M695.73,-503.34C695.73,-496.75 695.73,-489.08 695.73,-481.67"/>
<polygon fill="grey" stroke="grey" stroke-width="2" points="699.23,-481.9 695.73,-471.9 692.23,-481.9 699.23,-481.9"/>
</g>
<!-- 21 -->
<g id="node22" class="node">
<title>21</title>
<path fill="none" stroke="#a7d856" stroke-width="2" stroke-dasharray="5,2" d="M773.86,-324C773.86,-324 617.61,-324 617.61,-324 611.61,-324 605.61,-318 605.61,-312 605.61,-312 605.61,-300 605.61,-300 605.61,-294 611.61,-288 617.61,-288 617.61,-288 773.86,-288 773.86,-288 779.86,-288 785.86,-294 785.86,-300 785.86,-300 785.86,-312 785.86,-312 785.86,-318 779.86,-324 773.86,-324"/>
<text text-anchor="middle" x="695.73" y="-302.88" font-family="sans" font-size="10.00">CreateReadCountPanelOfNormals</text>
</g>
<!-- 21&#45;&gt;17 -->
<g id="edge27" class="edge">
<title>21&#45;&gt;17</title>
<path fill="none" stroke="grey" stroke-width="2" d="M645.26,-287.06C619.65,-277.97 588.32,-266.83 561.2,-257.2"/>
<polygon fill="grey" stroke="grey" stroke-width="2" points="561.67,-253.94 551.08,-253.89 559.33,-260.54 561.67,-253.94"/>
</g>
<!-- 22&#45;&gt;21 -->
<g id="edge32" class="edge">
<title>22&#45;&gt;21</title>
<path fill="none" stroke="grey" stroke-width="2" d="M788.12,-359.15C772.97,-350.6 754.59,-340.22 738.23,-330.99"/>
<polygon fill="grey" stroke="grey" stroke-width="2" points="739.72,-327.68 729.29,-325.81 736.28,-333.78 739.72,-327.68"/>
</g>
<!-- 23&#45;&gt;17 -->
<g id="edge28" class="edge">
<title>23&#45;&gt;17</title>
<path fill="none" stroke="grey" stroke-width="2" d="M657.31,-359.2C638.42,-349.77 615.69,-337.37 596.73,-324 570.51,-305.5 543.73,-280.69 524.81,-261.97"/>
<polygon fill="grey" stroke="grey" stroke-width="2" points="527.21,-259.42 517.68,-254.8 522.25,-264.36 527.21,-259.42"/>
</g>
<!-- 23&#45;&gt;21 -->
<g id="edge33" class="edge">
<title>23&#45;&gt;21</title>
<path fill="none" stroke="grey" stroke-width="2" d="M695.73,-359.34C695.73,-352.75 695.73,-345.08 695.73,-337.67"/>
<polygon fill="grey" stroke="grey" stroke-width="2" points="699.23,-337.9 695.73,-327.9 692.23,-337.9 699.23,-337.9"/>
</g>
<!-- 24&#45;&gt;16 -->
<g id="edge24" class="edge">
<title>24&#45;&gt;16</title>
<path fill="none" stroke="grey" stroke-width="2" d="M342.46,-359.47C356.87,-328.12 390.3,-261.44 432.73,-216 442.48,-205.56 454.59,-195.94 466.22,-187.84"/>
<polygon fill="grey" stroke="grey" stroke-width="2" points="468.3,-190.32 474.67,-181.85 464.41,-184.5 468.3,-190.32"/>
</g>
<!-- 25&#45;&gt;16 -->
<g id="edge25" class="edge">
<title>25&#45;&gt;16</title>
<path fill="none" stroke="grey" stroke-width="2" d="M920.04,-359.1C889.51,-340.38 839.53,-310.61 794.73,-288 716.83,-248.68 623.73,-209.51 565.16,-185.77"/>
<polygon fill="grey" stroke="grey" stroke-width="2" points="565.79,-182.44 555.2,-181.94 563.17,-188.93 565.79,-182.44"/>
</g>
<!-- 26&#45;&gt;0 -->
<g id="edge4" class="edge">
<title>26&#45;&gt;0</title>
<path fill="none" stroke="grey" stroke-width="2" d="M333.06,-143.02C328.25,-119.44 319.73,-77.73 313.91,-49.25"/>
<polygon fill="grey" stroke="grey" stroke-width="2" points="316.81,-47.94 311.38,-38.84 309.95,-49.34 316.81,-47.94"/>
</g>
<!-- 27&#45;&gt;0 -->
<g id="edge5" class="edge">
<title>27&#45;&gt;0</title>
<path fill="none" stroke="grey" stroke-width="2" d="M375.77,-71.34C365.29,-63.27 352.68,-53.57 341.17,-44.72"/>
<polygon fill="grey" stroke="grey" stroke-width="2" points="343.07,-41.22 333.01,-37.9 338.8,-46.77 343.07,-41.22"/>
</g>
</g>
</svg>
